<svg width="32" height="32" viewBox="0 0 32 32" fill="none" xmlns="http://www.w3.org/2000/svg">
<path d="M18.4269 29.3337H13.5736C12.947 29.3337 12.405 28.8977 12.2709 28.2857L11.7282 25.7737C11.0043 25.4565 10.3179 25.0598 9.68155 24.591L7.23222 25.371C6.63488 25.5615 5.98553 25.3101 5.67222 24.767L3.24022 20.5657C2.93033 20.0223 3.03709 19.337 3.49755 18.9137L5.39755 17.1803C5.31115 16.3951 5.31115 15.6028 5.39755 14.8177L3.49755 13.0883C3.03642 12.6648 2.92961 11.9786 3.24022 11.435L5.66688 7.23099C5.9802 6.68792 6.62955 6.43651 7.22688 6.62699L9.67622 7.40699C10.0016 7.16587 10.3404 6.94329 10.6909 6.74033C11.0273 6.55058 11.3736 6.37879 11.7282 6.22566L12.2722 3.71633C12.4056 3.10428 12.9471 2.66765 13.5736 2.66699H18.4269C19.0533 2.66765 19.5948 3.10428 19.7282 3.71633L20.2775 6.22699C20.6519 6.39168 21.0165 6.57777 21.3696 6.78433C21.6993 6.97469 22.018 7.18347 22.3242 7.40966L24.7749 6.62966C25.3718 6.43988 26.0204 6.6912 26.3336 7.23366L28.7602 11.4377C29.0701 11.981 28.9633 12.6663 28.5029 13.0897L26.6029 14.823C26.6893 15.6082 26.6893 16.4005 26.6029 17.1857L28.5029 18.919C28.9633 19.3423 29.0701 20.0277 28.7602 20.571L26.3336 24.775C26.0204 25.3174 25.3718 25.5688 24.7749 25.379L22.3242 24.599C22.0141 24.8274 21.6919 25.0388 21.3589 25.2323C21.0093 25.4349 20.6488 25.6178 20.2789 25.7803L19.7282 28.2857C19.5943 28.8972 19.0529 29.3331 18.4269 29.3337ZM15.9949 10.667C13.0494 10.667 10.6616 13.0548 10.6616 16.0003C10.6616 18.9458 13.0494 21.3337 15.9949 21.3337C18.9404 21.3337 21.3282 18.9458 21.3282 16.0003C21.3282 13.0548 18.9404 10.667 15.9949 10.667Z" fill="white"/>
</svg>
